<svg width="52" height="64" viewBox="0 0 52 64" fill="none" xmlns="http://www.w3.org/2000/svg">
<mask id="mask0_6_17" style="mask-type:luminance" maskUnits="userSpaceOnUse" x="0" y="0" width="52" height="64">
<path d="M51.6827 29.5321L34.4551 46.7658L51.6827 63.9995H31.9967L14.763 46.7658L31.9967 29.5321H51.6827ZM31.9967 0L0 31.9967L9.84608 41.8427L51.6827 0H31.9967Z" fill="white"/>
</mask>
<g mask="url(#mask0_6_17)">
<path d="M14.7691 46.7658L24.609 56.6119L51.6827 29.5321H31.9967L14.7691 46.7658Z" fill="#39CEFD"/>
</g>
<mask id="mask1_6_17" style="mask-type:luminance" maskUnits="userSpaceOnUse" x="0" y="0" width="52" height="64">
<path d="M51.6827 29.5321L34.4551 46.7658L51.6827 63.9995H31.9967L14.763 46.7658L31.9967 29.5321H51.6827ZM31.9967 0L0 31.9967L9.84608 41.8427L51.6827 0H31.9967Z" fill="white"/>
</mask>
<g mask="url(#mask1_6_17)">
<path d="M31.9967 0H51.6827L9.84608 41.8427L0 31.9967L31.9967 0Z" fill="#39CEFD"/>
</g>
<mask id="mask2_6_17" style="mask-type:luminance" maskUnits="userSpaceOnUse" x="0" y="0" width="52" height="64">
<path d="M51.6827 29.5321L34.4551 46.7658L51.6827 63.9995H31.9967L14.763 46.7658L31.9967 29.5321H51.6827ZM31.9967 0L0 31.9967L9.84608 41.8427L51.6827 0H31.9967Z" fill="white"/>
</mask>
<g mask="url(#mask2_6_17)">
<path d="M24.609 56.6118L31.9966 63.9933H51.6826L34.4551 46.7657L24.609 56.6118Z" fill="#03569B"/>
</g>
<mask id="mask3_6_17" style="mask-type:luminance" maskUnits="userSpaceOnUse" x="0" y="0" width="52" height="64">
<path d="M51.6827 29.5321L34.4551 46.7658L51.6827 63.9995H31.9967L14.763 46.7658L31.9967 29.5321H51.6827ZM31.9967 0L0 31.9967L9.84608 41.8427L51.6827 0H31.9967Z" fill="white"/>
</mask>
<g mask="url(#mask3_6_17)">
<path d="M39.2118 51.5532L34.4551 46.7657L24.609 56.6118L39.2118 51.5532Z" fill="url(#paint0_linear_6_17)"/>
</g>
<mask id="mask4_6_17" style="mask-type:luminance" maskUnits="userSpaceOnUse" x="0" y="0" width="52" height="64">
<path d="M51.6827 29.5321L34.4551 46.7658L51.6827 63.9995H31.9967L14.763 46.7658L31.9967 29.5321H51.6827ZM31.9967 0L0 31.9967L9.84608 41.8427L51.6827 0H31.9967Z" fill="white"/>
</mask>
<g mask="url(#mask4_6_17)">
<path d="M14.768 46.7624L24.6143 36.916L34.4613 46.7624L24.6143 56.6088L14.768 46.7624Z" fill="#16B9FD"/>
</g>
<path d="M51.6827 29.5321L34.4551 46.7658L51.6827 63.9995H31.9967L14.763 46.7658L31.9967 29.5321H51.6827ZM31.9967 0L0 31.9967L9.84608 41.8427L51.6827 0H31.9967Z" fill="url(#paint1_radial_6_17)"/>
<defs>
<linearGradient id="paint0_linear_6_17" x1="27.4824" y1="58.512" x2="34.8155" y2="51.1789" gradientUnits="userSpaceOnUse">
<stop stop-color="#1A237E" stop-opacity="0.4"/>
<stop offset="1" stop-color="#1A237E" stop-opacity="0"/>
</linearGradient>
<radialGradient id="paint1_radial_6_17" cx="0" cy="0" r="1" gradientUnits="userSpaceOnUse" gradientTransform="translate(1.45194 4.36202) scale(78.2956)">
<stop stop-color="white" stop-opacity="0.1"/>
<stop offset="1" stop-color="white" stop-opacity="0"/>
</radialGradient>
</defs>
</svg>
