<svg width="64" height="64" viewBox="0 0 64 64" fill="none" xmlns="http://www.w3.org/2000/svg">
<g clip-path="url(#clip0_6_41)">
<path d="M13.0522 50.9478L2.10322 39.9988C0.804588 38.6673 0 36.7852 0 34.9454C0 34.0938 0.479929 32.7622 0.842229 32L10.949 10.949L13.0522 50.9478Z" fill="#01579B"/>
<path d="M50.5291 13.0522L39.5801 2.10322C38.625 1.14336 36.6347 0 34.9502 0C33.501 0 32.08 0.291722 31.1625 0.842229L10.9537 10.949L50.5291 13.0522Z" fill="#40C4FF"/>
<path d="M26.1044 64H52.6323V52.6323L32.8423 46.3132L14.7367 52.6323L26.1044 64Z" fill="#40C4FF"/>
<path d="M10.949 45.0522C10.949 48.4305 11.3724 49.2586 13.0522 50.9478L14.7367 52.6323H52.6323L34.1079 31.5812L10.949 10.949V45.0522Z" fill="#29B6F6"/>
<path d="M44.6334 10.9442H10.949L52.6323 52.6275H64V26.5231L50.5243 13.0474C48.6328 11.1512 46.9531 10.9442 44.6334 10.9442Z" fill="#01579B"/>
<path opacity="0.2" d="M13.4756 51.3666C11.7912 49.6774 11.3724 48.0118 11.3724 45.0522V11.3677L10.9536 10.949V45.0522C10.9489 48.0118 10.9489 48.8305 13.4756 51.3666Z" fill="white"/>
<path opacity="0.2" d="M63.5812 26.1044V52.2088H52.2135L52.6323 52.6322H64V26.5231L63.5812 26.1044Z" fill="#263238"/>
<path opacity="0.2" d="M50.5291 13.0522C48.44 10.9631 46.732 10.949 44.2147 10.949H10.9537L11.3725 11.3677H44.2147C45.471 11.3677 48.6423 11.156 50.5291 13.0522Z" fill="white"/>
<path opacity="0.2" d="M63.5813 26.1044L50.5291 13.0522L39.5801 2.10322C38.625 1.14336 36.6347 0 34.9502 0C33.501 0 32.08 0.291722 31.1625 0.842229L10.9537 10.949L0.84699 32C0.48469 32.7669 0.00476074 34.0985 0.00476074 34.9454C0.00476074 36.7852 0.814054 38.6626 2.10798 39.9988L12.1959 50.0162C12.4359 50.3126 12.7182 50.6137 13.0523 50.9478L13.471 51.3666L14.732 52.6276L25.681 63.5765L26.0997 63.9953H52.2041H52.6229V52.6276H63.9906V52.5993V26.5232L63.5813 26.1044Z" fill="url(#paint0_radial_6_41)"/>
</g>
<defs>
<radialGradient id="paint0_radial_6_41" cx="0" cy="0" r="1" gradientUnits="userSpaceOnUse" gradientTransform="translate(3199.3 3199.4) scale(3199.53 3199.53)">
<stop stop-color="white" stop-opacity="0.1"/>
<stop offset="1" stop-color="white" stop-opacity="0"/>
</radialGradient>
<clipPath id="clip0_6_41">
<rect width="64" height="64" fill="white"/>
</clipPath>
</defs>
</svg>
